# xmcd CD database file
#
# Track frame offsets:
#	150
#	22484
#	44165
#	62591
#	85262
#	105791
#	127116
#	150650
#	181863
#	206662
#	234474
#	259278
#	281086
#	308549
#
# Disc length: 4392 seconds
#
# Revision: 6
# Processed by: cddbd v1.5.2PL0 Copyright (c) Steve Scherf et al.
# Submitted via: CDex 1.70beta2
#
DISCID=c511260e
DTITLE=JUJU - What's Love?
DYEAR=2009
DGENRE=R&B
TTITLE0=What's Love?
TTITLE1=素直になれたら
TTITLE2=U Got Me
TTITLE3=Missin' U
TTITLE4=My Life
TTITLE5=I can be free [album version]
TTITLE6=sakura
TTITLE7=空
TTITLE8=LOVE TOGETHER
TTITLE9=君がいるから-My Best Friends-
TTITLE10=世界が終わる前に
TTITLE11=やさしさで溢れるように
TTITLE12=愛しい
TTITLE13=どんなに遠くても...
EXTD=YEAR: 2009
EXTT0=
EXTT1=
EXTT2=
EXTT3=
EXTT4=
EXTT5=
EXTT6=
EXTT7=
EXTT8=
EXTT9=
EXTT10=
EXTT11=
EXTT12=
EXTT13=
PLAYORDER=
